<?xml version="1.0" encoding="UTF-8" standalone="no"?>
<svg
   xmlns:dc="http://purl.org/dc/elements/1.1/"
   xmlns:cc="http://creativecommons.org/ns#"
   xmlns:rdf="http://www.w3.org/1999/02/22-rdf-syntax-ns#"
   xmlns:svg="http://www.w3.org/2000/svg"
   xmlns="http://www.w3.org/2000/svg"
   viewBox="0 0 897.9834 897.95898"
   height="897.95898"
   width="897.9834"
   xml:space="preserve"
   version="1.1"
   id="svg6485"><metadata
     id="metadata6491"><rdf:RDF><cc:Work
         rdf:about=""><dc:format>image/svg+xml</dc:format><dc:type
           rdf:resource="http://purl.org/dc/dcmitype/StillImage" /><dc:title></dc:title></cc:Work></rdf:RDF></metadata><defs
     id="defs6489" /><g
     transform="matrix(1.25,0,0,-1.25,0,897.95898)"
     id="g6493"><g
       id="g6495"><path
         id="path6497"
         style="fill:#ffffff;fill-opacity:1;fill-rule:evenodd;stroke:none"
         d="M 718.387,359.172 C 718.387,160.797 557.57,0 359.195,0 160.816,0 0,160.797 0,359.172 c 0,198.379 160.816,359.195 359.195,359.195 198.375,0 359.192,-160.816 359.192,-359.195" /><path
         id="path6499"
         style="fill:#000000;fill-opacity:1;fill-rule:nonzero;stroke:none"
         d="M 4.438,359.172 C 4.438,163.57 163.57,4.438 359.195,4.438 c 195.621,0 354.754,159.132 354.754,354.734 0,195.625 -159.133,354.758 -354.754,354.758 C 163.57,713.93 4.438,554.797 4.438,359.172" /><path
         id="path6501"
         style="fill:#f0c900;fill-opacity:1;fill-rule:nonzero;stroke:none"
         d="m 5.848,359.172 c 0,194.84 158.507,353.348 353.347,353.348 194.836,0 353.325,-158.508 353.325,-353.348 C 712.52,164.355 554.031,5.848 359.195,5.848 164.355,5.848 5.848,164.355 5.848,359.172" /><path
         id="path6503"
         style="fill:#008754;fill-opacity:1;fill-rule:nonzero;stroke:none"
         d="m 359.191,695.508 c -185.746,0 -336.332,-150.567 -336.332,-336.332 0,-185.75 150.586,-336.336 336.332,-336.336 185.75,0 336.336,150.586 336.336,336.336 0,185.765 -150.586,336.332 -336.336,336.332 z m 0,-88.504 c 136.883,0 247.832,-110.949 247.832,-247.828 0,-136.863 -110.949,-247.813 -247.832,-247.813 -136.859,0 -247.828,110.95 -247.828,247.813 0,136.879 110.969,247.828 247.828,247.828 z" /><path
         id="path6505"
         style="fill:#008754;fill-opacity:1;fill-rule:nonzero;stroke:none"
         d="m 228.531,176.262 0,365.843 55.535,0 0,-156.789 150.254,0 0,156.789 55.516,0 0,-365.843 -55.516,0 0,160.054 -150.254,0 0,-160.054" /></g></g></svg>